<svg xmlns="http://www.w3.org/2000/svg">
    <symbol id="logo" viewBox="0 0 191 31">
        <svg width="191" height="31" viewBox="0 0 191 31" fill="none" xmlns="http://www.w3.org/2000/svg">
            <path d="M43 25V4.00002H48.55V11.8H56.65V4.00002H62.2V25H56.65V16.9H48.55V25H43Z" fill="white"/>
            <path d="M65.4859 5.20003C65.4859 4.48002 65.7559 3.88003 66.2959 3.40003C66.8359 2.90002 67.5159 2.65002 68.3359 2.65002C69.1559 2.65002 69.8359 2.90002 70.3759 3.40003C70.9159 3.88003 71.1859 4.48002 71.1859 5.20003C71.1859 5.90003 70.9159 6.50003 70.3759 7.00003C69.8359 7.50002 69.1559 7.75002 68.3359 7.75002C67.5159 7.75002 66.8359 7.50002 66.2959 7.00003C65.7559 6.50003 65.4859 5.90003 65.4859 5.20003ZM65.7859 25V9.40002H70.8859V25H65.7859Z" fill="white"/>
            <path d="M75.4541 22.63C74.1141 21.15 73.4441 19.24 73.4441 16.9C73.4441 14.56 74.1141 12.65 75.4541 11.17C76.7941 9.69002 78.4241 8.95003 80.3441 8.95003C81.7241 8.95003 82.9141 9.35003 83.9141 10.15C84.3741 10.51 84.7341 10.91 84.9941 11.35H85.2941V9.40002H90.3941V30.7H75.5441V26.65H85.2941V22.6H84.9941C84.7141 23.04 84.3541 23.42 83.9141 23.74C82.9341 24.48 81.7441 24.85 80.3441 24.85C78.4241 24.85 76.7941 24.11 75.4541 22.63ZM79.5941 14.26C78.9941 14.9 78.6941 15.78 78.6941 16.9C78.6941 18.02 78.9941 18.9 79.5941 19.54C80.1941 20.18 80.9941 20.5 81.9941 20.5C82.9941 20.5 83.7941 20.18 84.3941 19.54C84.9941 18.9 85.2941 18.02 85.2941 16.9C85.2941 15.78 84.9941 14.9 84.3941 14.26C83.7941 13.62 82.9941 13.3 81.9941 13.3C80.9941 13.3 80.1941 13.62 79.5941 14.26Z" fill="white"/>
            <path d="M93.3801 25V4.00002H98.4801V11.5H98.7801C99.0601 11.02 99.4201 10.6 99.8601 10.24C100.88 9.38003 102.07 8.95003 103.43 8.95003C105.27 8.95003 106.7 9.51003 107.72 10.63C108.76 11.73 109.28 13.32 109.28 15.4V25H104.18V16.15C104.18 15.25 103.94 14.55 103.46 14.05C102.98 13.55 102.32 13.3 101.48 13.3C100.62 13.3 99.9001 13.62 99.3201 14.26C98.7601 14.88 98.4801 15.71 98.4801 16.75V25H93.3801Z" fill="white"/>
            <path d="M120.538 30.7V9.40002H125.638V11.5H125.938C126.218 11.04 126.598 10.62 127.078 10.24C128.178 9.38003 129.348 8.95003 130.588 8.95003C132.508 8.95003 134.138 9.71003 135.478 11.23C136.818 12.73 137.488 14.72 137.488 17.2C137.488 19.68 136.818 21.68 135.478 23.2C134.138 24.7 132.508 25.45 130.588 25.45C129.328 25.45 128.158 25.03 127.078 24.19C126.598 23.81 126.218 23.38 125.938 22.9H125.638V30.7H120.538ZM126.538 14.32C125.938 15 125.638 15.96 125.638 17.2C125.638 18.44 125.938 19.4 126.538 20.08C127.138 20.76 127.938 21.1 128.938 21.1C129.938 21.1 130.738 20.76 131.338 20.08C131.938 19.4 132.238 18.44 132.238 17.2C132.238 15.96 131.938 15 131.338 14.32C130.738 13.64 129.938 13.3 128.938 13.3C127.938 13.3 127.138 13.64 126.538 14.32Z" fill="white"/>
            <path d="M141.284 23.2C139.944 21.68 139.274 19.68 139.274 17.2C139.274 14.72 139.944 12.73 141.284 11.23C142.624 9.71003 144.254 8.95003 146.174 8.95003C147.414 8.95003 148.584 9.38003 149.684 10.24C150.144 10.62 150.524 11.04 150.824 11.5H151.124V9.40002H156.224V25H151.124V22.9H150.824C150.544 23.38 150.164 23.81 149.684 24.19C148.604 25.03 147.434 25.45 146.174 25.45C144.254 25.45 142.624 24.7 141.284 23.2ZM145.424 14.32C144.824 15 144.524 15.96 144.524 17.2C144.524 18.44 144.824 19.4 145.424 20.08C146.024 20.76 146.824 21.1 147.824 21.1C148.824 21.1 149.624 20.76 150.224 20.08C150.824 19.4 151.124 18.44 151.124 17.2C151.124 15.96 150.824 15 150.224 14.32C149.624 13.64 148.824 13.3 147.824 13.3C146.824 13.3 146.024 13.64 145.424 14.32Z" fill="white"/>
            <path d="M158.31 19.9H163.41C163.49 20.2 163.66 20.48 163.92 20.74C164.46 21.28 165.24 21.55 166.26 21.55C167.66 21.55 168.36 21.2 168.36 20.5C168.36 20.18 168.16 19.93 167.76 19.75C167.36 19.55 166.76 19.35 165.96 19.15C165.3 18.99 164.87 18.89 164.67 18.85C164.47 18.81 164.05 18.7 163.41 18.52C162.77 18.32 162.31 18.15 162.03 18.01C161.77 17.85 161.4 17.63 160.92 17.35C160.46 17.05 160.12 16.75 159.9 16.45C159.7 16.13 159.51 15.74 159.33 15.28C159.15 14.8 159.06 14.29 159.06 13.75C159.06 12.43 159.65 11.3 160.83 10.36C162.01 9.42002 163.67 8.95003 165.81 8.95003C168.49 8.95003 170.61 9.83002 172.17 11.59C172.79 12.35 173.22 13.22 173.46 14.2H168.51C168.39 13.88 168.25 13.63 168.09 13.45C167.63 12.95 166.97 12.7 166.11 12.7C164.91 12.7 164.31 13.05 164.31 13.75C164.31 14.09 164.51 14.35 164.91 14.53C165.31 14.71 165.92 14.88 166.74 15.04C168.8 15.52 170.19 15.94 170.91 16.3C172.71 17.18 173.61 18.53 173.61 20.35C173.61 21.79 172.97 23 171.69 23.98C170.43 24.96 168.62 25.45 166.26 25.45C163.36 25.45 161.15 24.53 159.63 22.69C158.95 21.87 158.51 20.94 158.31 19.9Z" fill="white"/>
            <path d="M174.951 19.9H180.051C180.131 20.2 180.301 20.48 180.561 20.74C181.101 21.28 181.881 21.55 182.901 21.55C184.301 21.55 185.001 21.2 185.001 20.5C185.001 20.18 184.801 19.93 184.401 19.75C184.001 19.55 183.401 19.35 182.601 19.15C181.941 18.99 181.511 18.89 181.311 18.85C181.111 18.81 180.691 18.7 180.051 18.52C179.411 18.32 178.951 18.15 178.671 18.01C178.411 17.85 178.041 17.63 177.561 17.35C177.101 17.05 176.761 16.75 176.541 16.45C176.341 16.13 176.151 15.74 175.971 15.28C175.791 14.8 175.701 14.29 175.701 13.75C175.701 12.43 176.291 11.3 177.471 10.36C178.651 9.42002 180.311 8.95003 182.451 8.95003C185.131 8.95003 187.251 9.83002 188.811 11.59C189.431 12.35 189.861 13.22 190.101 14.2H185.151C185.031 13.88 184.891 13.63 184.731 13.45C184.271 12.95 183.611 12.7 182.751 12.7C181.551 12.7 180.951 13.05 180.951 13.75C180.951 14.09 181.151 14.35 181.551 14.53C181.951 14.71 182.561 14.88 183.381 15.04C185.441 15.52 186.831 15.94 187.551 16.3C189.351 17.18 190.251 18.53 190.251 20.35C190.251 21.79 189.611 23 188.331 23.98C187.071 24.96 185.261 25.45 182.901 25.45C180.001 25.45 177.791 24.53 176.271 22.69C175.591 21.87 175.151 20.94 174.951 19.9Z" fill="white"/>
            <path fill-rule="evenodd" clip-rule="evenodd" d="M6 6V24H24L6 6ZM0 0V30H30V0H0Z" fill="#FF6E30"/>
        </svg>
    </symbol>
    <symbol id="master-class" viewBox="0 0 123 30">
        <svg width="123" height="30" viewBox="0 0 123 30" fill="none" xmlns="http://www.w3.org/2000/svg">
            <rect width="123" height="30" fill="#202020"/>
            <path d="M19.5537 17.1973H17.749L17.2021 20H16.2246L16.7715 17.1973H15.1377V16.2607H16.9492L17.4209 13.8408H15.6572V12.8906H17.6055L18.166 10.0469H19.1436L18.583 12.8906H20.3877L20.9482 10.0469H21.9326L21.3721 12.8906H22.7666V13.8408H21.1875L20.7158 16.2607H22.2539V17.1973H20.5381L19.9912 20H19.0068L19.5537 17.1973ZM17.9268 16.2607H19.7314L20.2031 13.8408H18.3984L17.9268 16.2607ZM28.167 18.3252L30.6826 12.6035H32.2617V20H30.9971V14.6201L28.6045 20H27.7295L25.2891 14.5039V20H24.0244V12.6035H25.665L28.167 18.3252ZM38.8652 20C38.7923 19.8542 38.7331 19.5944 38.6875 19.2207C38.0996 19.8314 37.3978 20.1367 36.582 20.1367C35.8529 20.1367 35.2536 19.9316 34.7842 19.5215C34.3193 19.1068 34.0869 18.5827 34.0869 17.9492C34.0869 17.179 34.3786 16.582 34.9619 16.1582C35.5498 15.7298 36.3747 15.5156 37.4365 15.5156H38.667V14.9346C38.667 14.4925 38.5348 14.1416 38.2705 13.8818C38.0062 13.6175 37.6165 13.4854 37.1016 13.4854C36.6504 13.4854 36.2721 13.5993 35.9668 13.8271C35.6615 14.055 35.5088 14.3307 35.5088 14.6543H34.2373C34.2373 14.2852 34.3672 13.9297 34.627 13.5879C34.8913 13.2415 35.2467 12.9681 35.6934 12.7676C36.1445 12.5671 36.639 12.4668 37.1768 12.4668C38.029 12.4668 38.6966 12.681 39.1797 13.1094C39.6628 13.5332 39.9134 14.1188 39.9316 14.8662V18.2705C39.9316 18.9495 40.0182 19.4896 40.1914 19.8906V20H38.8652ZM36.7666 19.0361C37.1631 19.0361 37.5391 18.9336 37.8945 18.7285C38.25 18.5234 38.5075 18.2568 38.667 17.9287V16.4111H37.6758C36.1263 16.4111 35.3516 16.8646 35.3516 17.7715C35.3516 18.168 35.4837 18.4779 35.748 18.7012C36.0124 18.9245 36.3519 19.0361 36.7666 19.0361ZM44.8809 19.1045C45.332 19.1045 45.7262 18.9678 46.0635 18.6943C46.4007 18.4209 46.5876 18.0791 46.624 17.6689H47.8203C47.7975 18.0928 47.6517 18.4961 47.3828 18.8789C47.1139 19.2617 46.7539 19.5671 46.3027 19.7949C45.8561 20.0228 45.3822 20.1367 44.8809 20.1367C43.8737 20.1367 43.0716 19.8018 42.4746 19.1318C41.8822 18.4574 41.5859 17.5368 41.5859 16.3701V16.1582C41.5859 15.4382 41.7181 14.7979 41.9824 14.2373C42.2467 13.6768 42.625 13.2415 43.1172 12.9316C43.6139 12.6217 44.1995 12.4668 44.874 12.4668C45.7035 12.4668 46.3916 12.7152 46.9385 13.2119C47.4899 13.7087 47.7839 14.3535 47.8203 15.1465H46.624C46.5876 14.668 46.4053 14.276 46.0771 13.9707C45.7536 13.6608 45.3525 13.5059 44.874 13.5059C44.2314 13.5059 43.7324 13.7383 43.377 14.2031C43.026 14.6634 42.8506 15.3311 42.8506 16.2061V16.4453C42.8506 17.2975 43.026 17.9538 43.377 18.4141C43.7279 18.8743 44.2292 19.1045 44.8809 19.1045ZM54.7383 13.6289H52.2568V20H50.9922V13.6289H48.5586V12.6035H54.7383V13.6289ZM58.4912 20.1367C57.4886 20.1367 56.6729 19.8086 56.0439 19.1523C55.415 18.4915 55.1006 17.6097 55.1006 16.5068V16.2744C55.1006 15.5407 55.2396 14.8867 55.5176 14.3125C55.8001 13.7337 56.1921 13.2826 56.6934 12.959C57.1992 12.6309 57.7461 12.4668 58.334 12.4668C59.2956 12.4668 60.043 12.7835 60.5762 13.417C61.1094 14.0505 61.376 14.9574 61.376 16.1377V16.6641H56.3652C56.3835 17.3932 56.5954 17.9834 57.001 18.4346C57.4111 18.8812 57.9307 19.1045 58.5596 19.1045C59.0062 19.1045 59.3844 19.0133 59.6943 18.8311C60.0042 18.6488 60.2754 18.4072 60.5078 18.1064L61.2803 18.708C60.6605 19.6605 59.7308 20.1367 58.4912 20.1367ZM58.334 13.5059C57.8236 13.5059 57.3952 13.6927 57.0488 14.0664C56.7025 14.4355 56.4883 14.9551 56.4062 15.625H60.1113V15.5293C60.0749 14.8867 59.9017 14.39 59.5918 14.0391C59.2819 13.6836 58.8626 13.5059 58.334 13.5059ZM69.0938 16.3838C69.0938 17.5094 68.8363 18.4163 68.3213 19.1045C67.8063 19.7926 67.109 20.1367 66.2295 20.1367C65.3317 20.1367 64.6253 19.8519 64.1104 19.2822V22.8438H62.8457V12.6035H64.001L64.0625 13.4238C64.5775 12.7858 65.293 12.4668 66.209 12.4668C67.0977 12.4668 67.7995 12.8018 68.3145 13.4717C68.834 14.1416 69.0938 15.0736 69.0938 16.2676V16.3838ZM67.8291 16.2402C67.8291 15.4062 67.6514 14.7477 67.2959 14.2646C66.9404 13.7816 66.4528 13.54 65.833 13.54C65.0674 13.54 64.4932 13.8796 64.1104 14.5586V18.0928C64.4886 18.7673 65.0674 19.1045 65.8467 19.1045C66.4528 19.1045 66.9336 18.8652 67.2891 18.3867C67.6491 17.9036 67.8291 17.1882 67.8291 16.2402ZM73.0107 16.8486H72.0879V20H70.8164V12.6035H72.0879V15.7344H72.915L75.4033 12.6035H76.9346L74.0088 16.1582L77.1807 20H75.5742L73.0107 16.8486ZM84.3311 12.6035V20H83.0596V13.6494H80.5439L80.3936 16.418C80.3115 17.6895 80.0973 18.5986 79.751 19.1455C79.4092 19.6924 78.8646 19.9772 78.1172 20H77.6113V18.8857L77.9736 18.8584C78.3838 18.8128 78.6777 18.5758 78.8555 18.1475C79.0332 17.7191 79.1471 16.9261 79.1973 15.7686L79.334 12.6035H84.3311ZM90.9277 20C90.8548 19.8542 90.7956 19.5944 90.75 19.2207C90.1621 19.8314 89.4603 20.1367 88.6445 20.1367C87.9154 20.1367 87.3161 19.9316 86.8467 19.5215C86.3818 19.1068 86.1494 18.5827 86.1494 17.9492C86.1494 17.179 86.4411 16.582 87.0244 16.1582C87.6123 15.7298 88.4372 15.5156 89.499 15.5156H90.7295V14.9346C90.7295 14.4925 90.5973 14.1416 90.333 13.8818C90.0687 13.6175 89.679 13.4854 89.1641 13.4854C88.7129 13.4854 88.3346 13.5993 88.0293 13.8271C87.724 14.055 87.5713 14.3307 87.5713 14.6543H86.2998C86.2998 14.2852 86.4297 13.9297 86.6895 13.5879C86.9538 13.2415 87.3092 12.9681 87.7559 12.7676C88.207 12.5671 88.7015 12.4668 89.2393 12.4668C90.0915 12.4668 90.7591 12.681 91.2422 13.1094C91.7253 13.5332 91.9759 14.1188 91.9941 14.8662V18.2705C91.9941 18.9495 92.0807 19.4896 92.2539 19.8906V20H90.9277ZM88.8291 19.0361C89.2256 19.0361 89.6016 18.9336 89.957 18.7285C90.3125 18.5234 90.57 18.2568 90.7295 17.9287V16.4111H89.7383C88.1888 16.4111 87.4141 16.8646 87.4141 17.7715C87.4141 18.168 87.5462 18.4779 87.8105 18.7012C88.0749 18.9245 88.4144 19.0361 88.8291 19.0361ZM96.9434 19.1045C97.3945 19.1045 97.7887 18.9678 98.126 18.6943C98.4632 18.4209 98.6501 18.0791 98.6865 17.6689H99.8828C99.86 18.0928 99.7142 18.4961 99.4453 18.8789C99.1764 19.2617 98.8164 19.5671 98.3652 19.7949C97.9186 20.0228 97.4447 20.1367 96.9434 20.1367C95.9362 20.1367 95.1341 19.8018 94.5371 19.1318C93.9447 18.4574 93.6484 17.5368 93.6484 16.3701V16.1582C93.6484 15.4382 93.7806 14.7979 94.0449 14.2373C94.3092 13.6768 94.6875 13.2415 95.1797 12.9316C95.6764 12.6217 96.262 12.4668 96.9365 12.4668C97.766 12.4668 98.4541 12.7152 99.001 13.2119C99.5524 13.7087 99.8464 14.3535 99.8828 15.1465H98.6865C98.6501 14.668 98.4678 14.276 98.1396 13.9707C97.8161 13.6608 97.415 13.5059 96.9365 13.5059C96.2939 13.5059 95.7949 13.7383 95.4395 14.2031C95.0885 14.6634 94.9131 15.3311 94.9131 16.2061V16.4453C94.9131 17.2975 95.0885 17.9538 95.4395 18.4141C95.7904 18.8743 96.2917 19.1045 96.9434 19.1045ZM104.271 19.1045C104.723 19.1045 105.117 18.9678 105.454 18.6943C105.791 18.4209 105.978 18.0791 106.015 17.6689H107.211C107.188 18.0928 107.042 18.4961 106.773 18.8789C106.505 19.2617 106.145 19.5671 105.693 19.7949C105.247 20.0228 104.773 20.1367 104.271 20.1367C103.264 20.1367 102.462 19.8018 101.865 19.1318C101.273 18.4574 100.977 17.5368 100.977 16.3701V16.1582C100.977 15.4382 101.109 14.7979 101.373 14.2373C101.637 13.6768 102.016 13.2415 102.508 12.9316C103.005 12.6217 103.59 12.4668 104.265 12.4668C105.094 12.4668 105.782 12.7152 106.329 13.2119C106.881 13.7087 107.174 14.3535 107.211 15.1465H106.015C105.978 14.668 105.796 14.276 105.468 13.9707C105.144 13.6608 104.743 13.5059 104.265 13.5059C103.622 13.5059 103.123 13.7383 102.768 14.2031C102.417 14.6634 102.241 15.3311 102.241 16.2061V16.4453C102.241 17.2975 102.417 17.9538 102.768 18.4141C103.118 18.8743 103.62 19.1045 104.271 19.1045Z" fill="white"/>
        </svg>
    </symbol>
    <symbol id="calendar" viewBox="0 0 14 14">
        <svg width="14" height="14" viewBox="0 0 14 14" fill="none" xmlns="http://www.w3.org/2000/svg">
            <path d="M11.6666 1.74992H11.0833V0.583252H9.91663V1.74992H4.08329V0.583252H2.91663V1.74992H2.33329C1.69163 1.74992 1.16663 2.27492 1.16663 2.91659V12.2499C1.16663 12.8916 1.69163 13.4166 2.33329 13.4166H11.6666C12.3083 13.4166 12.8333 12.8916 12.8333 12.2499V2.91659C12.8333 2.27492 12.3083 1.74992 11.6666 1.74992ZM11.6666 12.2499H2.33329V4.66658H11.6666V12.2499Z" fill="#999999"/>
        </svg>
    </symbol>
    <symbol id="calendar2" viewBox="0 0 14 14">
        <svg width="14" height="14" viewBox="0 0 14 14" fill="none" xmlns="http://www.w3.org/2000/svg">
            <path
                    d="M11.6666 1.74992H11.0833V0.583252H9.91663V1.74992H4.08329V0.583252H2.91663V1.74992H2.33329C1.69163 1.74992 1.16663 2.27492 1.16663 2.91659V12.2499C1.16663 12.8916 1.69163 13.4166 2.33329 13.4166H11.6666C12.3083 13.4166 12.8333 12.8916 12.8333 12.2499V2.91659C12.8333 2.27492 12.3083 1.74992 11.6666 1.74992ZM11.6666 12.2499H2.33329V4.66658H11.6666V12.2499Z" fill="#ffffff"/>
        </svg>
    </symbol>
    <symbol id="burger-btn" viewBox="0 0 20 18">
        <svg width="20" height="18" viewBox="0 0 20 18" fill="none" xmlns="http://www.w3.org/2000/svg">
            <rect width="20" height="2" fill="white"/>
            <rect y="8" width="20" height="2" fill="white"/>
            <rect y="16" width="10" height="2" fill="white"/>
        </svg>
    </symbol>
    <symbol id="close" viewBox="0 0 20 20">
      <svg width="20" height="20" viewBox="0 0 20 20" fill="none"
            xmlns="http://www.w3.org/2000/svg">
        <circle cx="10" cy="10" r="10" fill="#999999"/>
        <rect x="6.20715" y="5.5" width="12" height="1" transform="rotate(45 6.20715 5.5)" fill="white"/>
        <rect x="5.59143" y="13.9854" width="12" height="1" transform="rotate(-45 5.59143 13.9854)" fill="white"/>
      </svg>
    </symbol>
    <symbol id="maps-call" viewBox="0 0 22 22">
      <svg width="22" height="22" viewBox="0 0 22 22" fill="none" xmlns="http://www.w3.org/2000/svg">
        <path d="M18.3425 14.0983C17.215 14.0983 16.1242 13.915 15.1067 13.585C14.7858 13.475 14.4283 13.5575 14.1808 13.805L12.7417 15.6108C10.1475 14.3733 7.71833 12.0358 6.42583 9.35L8.21333 7.82833C8.46083 7.57167 8.53417 7.21417 8.43333 6.89333C8.09417 5.87583 7.92 4.785 7.92 3.6575C7.92 3.1625 7.5075 2.75 7.0125 2.75H3.84083C3.34583 2.75 2.75 2.97 2.75 3.6575C2.75 12.1733 9.83583 19.25 18.3425 19.25C18.9933 19.25 19.25 18.6725 19.25 18.1683V15.0058C19.25 14.5108 18.8375 14.0983 18.3425 14.0983Z" fill="#FF6E30"/>
      </svg>
    </symbol>
</svg>
